<svg xmlns="http://www.w3.org/2000/svg" class="svg-logo" width="2400" height="2400" viewBox="0 0 630 430" style="height: auto;"><rect width="630" height="630" y="-100" rx="0" ry="0" fill="transparent" fill-opacity="0"></rect><g data-element="wrapper" transform="translate(-47.2500000000031 -32.25000000000213) scale(1.15000000000001)"><g ><g data-element="icon" transform="scale(0.14403507545334684) translate(893.1097353812086 1192.7900080448483)"><path id="color_x5F_2" d="M557.28,282.38c0-78.092-35.233-147.93-90.641-194.568L456.542,2.571l-84.511,196.008    l80.629,37.692L369.567,357.79l63.916,29.827L237.325,592.705l137.315-66.371C480.18,495.404,557.28,397.922,557.28,282.38z" fill="#fedd00" fill-opacity="1"></path> <path id="color_x5F_1" d="M313.715,220.621l84.132-175.972c0,0-47.581-21.04-101.689-21.04    c-142.35,0-258.163,115.814-258.163,258.172c0,116.662,78.625,219.211,191.201,249.378l20.406-76.159    c-78.165-20.944-132.754-92.183-132.754-173.219c0-98.879,101.074-185.189,187.947-178.937l-77.773,159.785l65.337,26.987    l-60.784,106.779l54.732,23.76l-35.838,115.053l117.413-133.779l-60.269-25.307l83.118-123.231L313.715,220.621z" fill="#5f5c5f" fill-opacity="1"></path></g><path d="M231.65 195.35L268.89 195.35L268.89 201.59L238.73 201.59L238.73 215.18L257.71 215.18L257.71 221.42L238.73 221.42L238.73 236.76L268.89 236.76L268.89 243L231.65 243L231.65 195.35ZM284.51 195.35L284.51 243L277.56 243L277.56 195.35L284.51 195.35ZM325.55 227.72L299.61 227.72Q300.07 232.15 302.41 235.00Q304.75 237.87 309.17 237.87L309.17 237.87Q312.55 237.87 314.43 236.50Q316.32 235.13 317.81 231.82L317.81 231.82L324.31 233.90Q322.69 238.25 318.98 241.05Q315.28 243.84 309.17 243.84L309.17 243.84Q302.86 243.84 299.22 240.89Q295.58 237.93 294.18 233.87Q292.79 229.81 292.79 225.97L292.79 225.97Q292.79 222.13 294.18 218.07Q295.58 214.01 299.22 211.05Q302.86 208.09 309.17 208.09L309.17 208.09Q315.47 208.09 319.14 211.05Q322.82 214.01 324.21 218.07Q325.61 222.13 325.61 225.97L325.61 225.97Q325.61 227.07 325.55 227.72L325.55 227.72ZM309.17 214.07Q305.27 214.07 302.96 216.35Q300.65 218.63 299.94 222.26L299.94 222.26L318.46 222.26Q317.75 218.63 315.44 216.35Q313.13 214.07 309.17 214.07L309.17 214.07ZM357.81 230L363.79 232.28Q362.36 237.22 358.52 240.53Q354.69 243.84 347.86 243.84L347.86 243.84Q341.36 243.84 337.59 240.89Q333.82 237.93 332.39 233.87Q330.96 229.81 330.96 225.97L330.96 225.97Q330.96 222.13 332.39 218.07Q333.82 214.01 337.59 211.05Q341.36 208.09 347.86 208.09L347.86 208.09Q354.69 208.09 358.52 211.41Q362.36 214.72 363.79 219.66L363.79 219.66L357.81 221.94Q356.90 218.43 354.43 216.25Q351.96 214.07 347.86 214.07L347.86 214.07Q342.60 214.07 340.06 217.52Q337.53 220.97 337.53 225.97L337.53 225.97Q337.53 230.97 340.06 234.42Q342.60 237.87 347.86 237.87L347.86 237.87Q351.96 237.87 354.43 235.69Q356.90 233.51 357.81 230L357.81 230ZM386.43 208.94L386.43 214.40L379.86 214.40L379.86 233.12Q379.86 235.26 380.38 236.18Q380.90 237.09 382.27 237.09L382.27 237.09Q383.31 237.09 385.71 236.44L385.71 236.44L385.71 243.06Q382.40 243.84 379.60 243.84L379.60 243.84Q376.55 243.84 375.08 242.74Q373.62 241.63 373.30 240.14Q372.97 238.65 372.97 236.24L372.97 236.24L372.97 214.40L366.73 214.40L366.73 208.94L372.97 208.94L372.97 199.25L379.86 199.25L379.86 208.94L386.43 208.94ZM411.34 208.09Q416.22 208.09 420.38 210.92Q424.54 213.75 424.54 221.29L424.54 221.29L424.54 243L417.65 243Q417.65 223.04 417.58 222.40L417.58 222.40Q417.32 218.69 415.50 216.54Q413.68 214.40 410.76 214.40L410.76 214.40Q408.48 214.40 406.37 215.70Q404.26 217 402.86 219.70Q401.46 222.40 401.46 226.29L401.46 226.29L401.46 243L394.51 243L394.51 195.35L401.46 195.35L401.46 213.49Q403.22 210.95 406.04 209.53Q408.87 208.09 411.34 208.09L411.34 208.09ZM449.13 243.84Q442.63 243.84 438.86 240.89Q435.09 237.93 433.66 233.87Q432.23 229.81 432.23 225.97L432.23 225.97Q432.23 222.13 433.66 218.07Q435.09 214.01 438.86 211.05Q442.63 208.09 449.13 208.09L449.13 208.09Q455.56 208.09 459.33 211.05Q463.10 214.01 464.56 218.07Q466.03 222.13 466.03 225.97L466.03 225.97Q466.03 229.81 464.56 233.87Q463.10 237.93 459.33 240.89Q455.56 243.84 449.13 243.84L449.13 243.84ZM449.13 237.87Q454.39 237.87 456.93 234.42Q459.46 230.97 459.46 225.97L459.46 225.97Q459.46 220.97 456.93 217.52Q454.39 214.07 449.13 214.07L449.13 214.07Q443.86 214.07 441.33 217.52Q438.79 220.97 438.79 225.97L438.79 225.97Q438.79 230.97 441.33 234.42Q443.86 237.87 449.13 237.87L449.13 237.87ZM480.35 208.94L480.35 214.79Q484.51 208.42 492.11 208.42L492.11 208.42L492.11 215.70Q491.07 215.57 490.55 215.57L490.55 215.57Q488.34 215.57 486.10 216.54Q483.86 217.52 482.26 219.34Q480.67 221.16 480.35 223.44L480.35 223.44L480.35 243L473.39 243L473.39 208.94L480.35 208.94Z" data-element="company-name" data-text-path="" data-text="Electhor" data-font-family="JP Shippori Antique" fill="#000000" fill-opacity="1"></path></g></g></svg>