<!-- icon666.com - MILLIONS vector ICONS FREE --><svg id="line_gradient_copy" viewBox="0 0 64 64" xmlns="http://www.w3.org/2000/svg" xmlns:xlink="http://www.w3.org/1999/xlink" data-name="line gradient copy"><linearGradient id="linear-gradient" gradientUnits="userSpaceOnUse" x1="8.703" x2="55.297" y1="32" y2="32"><stop offset="0" stop-color="#00c0ff"></stop><stop offset="1" stop-color="#5558ff"></stop></linearGradient><path d="m48.50589 37.30748a1.00011 1.00011 0 0 1 -1.41423-1.4139c8.27918-7.94366 8.2789-22.238.00029-30.182a1 1 0 0 1 1.41389-1.414c9.05455 8.68823 9.05516 24.32163.00005 33.0099zm-3.947-29.063a1 1 0 0 0 -1.4139 1.414 15.83247 15.83247 0 0 1 -.00022 22.28814 1.00671 1.00671 0 0 0 .70719 1.70688.99655.99655 0 0 0 .70693-.29292 17.84117 17.84117 0 0 0 .00001-25.11608zm-3.94689 3.94696a1 1 0 0 0 -1.4139 1.414 10.21885 10.21885 0 0 1 -.0002 14.39426 1.00665 1.00665 0 0 0 .70713 1.70688.99655.99655 0 0 0 .70693-.29292 12.22748 12.22748 0 0 0 .00004-17.22222zm-29.95362 8.61156a21.19023 21.19023 0 0 1 6.10106-14.93037 1.00007 1.00007 0 0 0 -1.42766-1.40022c-8.83843 8.648-8.83835 24.01356.00029 32.6613a1 1 0 0 0 1.42732-1.40031 21.19021 21.19021 0 0 1 -6.10101-14.9304zm5.58059 0a15.63694 15.63694 0 0 1 4.50744-11.02444 1.00005 1.00005 0 0 0 -1.4257-1.40218 17.82113 17.82113 0 0 0 -.00071 24.85336 1.00067 1.00067 0 0 0 1.42737-1.40227 15.64121 15.64121 0 0 1 -4.50837-11.02447zm8.47391-8.53543a1.00434 1.00434 0 0 0 -1.41492.01465 12.2308 12.2308 0 0 0 .00013 17.04058.99981.99981 0 1 0 1.4294-1.39833 10.22058 10.22058 0 0 1 -.00083-14.242 1.00088 1.00088 0 0 0 -.01378-1.41486zm8.28741 15.04276v11.97167h.86028a3.09785 3.09785 0 0 1 3.09935 3.08959v2.32984a1 1 0 0 1 -1.99983 0v-2.32986a1.09606 1.09606 0 0 0 -1.09952-1.08975h-3.34057a1.09606 1.09606 0 0 0 -1.09952 1.08975v11.61721h5.53959v-5.28761a1 1 0 0 1 1.99983 0v8.20928a3.09785 3.09785 0 0 1 -3.09933 3.08955h-3.34057a3.09785 3.09785 0 0 1 -3.09935-3.08957c0-.00969 0-14.53886 0-14.53881a3.16772 3.16772 0 0 1 3.5798-3.08962l.00018-11.974c-5.20893-.66151-7.45486-7.447-3.7187-11.11582 6.38671-6.043 15.35111 2.84788 9.38016 9.27845a6.58668 6.58668 0 0 1 -3.6618 1.83974zm-3.57979 28.67828v.9218a1.09606 1.09606 0 0 0 1.0995 1.08975h3.34055a1.09606 1.09606 0 0 0 1.09952-1.08975v-.9218zm2.58-39.777c-6.06612.16384-6.06877 9.0155-.0001 9.18186 6.06685-.17636 6.06921-9.00225.00007-9.18185zm-.0001 3.54408a1.047 1.047 0 0 0 0 2.09388 1.047 1.047 0 0 0 -.00003-2.09387z" fill="#fedd00"></path></svg>